<?xml version="1.0" encoding="UTF-8"?>
<svg version="1.1" xmlns="http://www.w3.org/2000/svg" width="241" height="118">
<path d="M0 0 C15.8770391 6.4553142 33.6260141 12.73193313 50.625 6.5 C51.73875 6.005 52.8525 5.51 54 5 C54.99 4.67 55.98 4.34 57 4 C55.63408942 7.25877144 54.32304799 8.7914639 51.3125 10.625 C50.66925781 11.02976562 50.02601563 11.43453125 49.36328125 11.8515625 C35.58265353 18.54826423 18.03891135 15.48572305 4 11 C0.53015547 9.79801616 -2.87765583 8.46828648 -6.265625 7.05078125 C-16.18795583 3.23777126 -29.94035038 3.2798296 -39.8125 7.0625 C-45.62249047 9.93092886 -49.34842191 13.524205 -52.12109375 19.359375 C-54.26128371 25.78945684 -54.02710626 32.85271064 -51 38.9375 C-47.87378225 43.8450384 -43.52507461 46.94854371 -37.95703125 48.609375 C-30.50365235 50.09707538 -24.48976598 48.22076017 -18.25 44.25 C-13.37100696 39.37100696 -11.32430669 34.13496465 -10.625 27.375 C-10.73733914 21.90101989 -12.79580141 17.38199762 -16 13 C-18.30958371 11.08822085 -20.61131634 9.55335291 -23.20703125 8.05859375 C-23.79871094 7.70925781 -24.39039063 7.35992187 -25 7 C-25 6.67 -25 6.34 -25 6 C-22.93867858 5.89135055 -20.87568679 5.81411679 -18.8125 5.75 C-17.66394531 5.70359375 -16.51539062 5.6571875 -15.33203125 5.609375 C-11.31191325 6.08066668 -9.8222913 7.15282077 -7 10 C-5.671875 12 -5.671875 12 -4.75 14 C-4.43546875 14.66 -4.1209375 15.32 -3.796875 16 C-0.75353704 23.63818154 -1.07998568 32.26699059 -3.93359375 39.91796875 C-5.73161232 43.42838596 -8.23447292 46.21657307 -11 49 C0.36510132 45.40738439 12.77281644 41.00976932 21 32 C21.66 32.33 22.32 32.66 23 33 C12.88925936 45.97487536 -2.53095129 55.84879664 -19 58 C-41.52025532 59.82891771 -59.11921772 54.81450059 -76.58984375 40.1484375 C-78.81857884 38.16172065 -80.99092394 36.20951753 -83 34 C-83 33.34 -83 32.68 -83 32 C-79.88898176 33.43911048 -77.30246919 35.1984885 -74.5625 37.25 C-68.76412396 41.38426812 -62.52727921 44.20697927 -56 47 C-56.433125 46.30777344 -56.86625 45.61554687 -57.3125 44.90234375 C-62.05410434 36.57160835 -63.38077931 29.51900887 -62 20 C-59.59530927 12.08983313 -54.62978411 5.80321872 -47.57421875 1.53125 C-32.83538764 -6.16246457 -15.23551171 -6.6426831 0 0 Z " fill="#92BF2B" transform="translate(138,4)"/>
<path d="M0 0 C4.51012321 2.6252956 7.74290646 5.22622704 9.90625 10.09375 C10.67014444 15.42509659 10.61035107 19.65947005 8.21875 24.53125 C3.91500627 29.30026332 0.70437359 31.80919506 -5.78125 32.46875 C-10.85665393 32.39397425 -14.26140583 30.28171772 -18.09375 27.09375 C-21.60149539 23.41061734 -22.37911 20.54388489 -22.59375 15.59375 C-22.39344749 10.6729849 -21.52292072 7.79364473 -18.09375 4.09375 C-12.57824729 -0.07101735 -6.86761895 -2.97255149 0 0 Z " fill="#019EE1" transform="translate(112.09375,15.90625)"/>
<path d="M0 0 C79.53 0 159.06 0 241 0 C241 0.99 241 1.98 241 3 C161.47 3 81.94 3 0 3 C0 2.01 0 1.02 0 0 Z " fill="#8EC029" transform="translate(0,115)"/>
<path d="M0 0 C2.60546875 0.13671875 2.60546875 0.13671875 5.25 1.375 C9.13495749 5.7547466 11.62023894 11.19335234 14.25 16.375 C14.58 16.705 14.91 17.035 15.25 17.375 C15.58 12.095 15.91 6.815 16.25 1.375 C18.89 1.375 21.53 1.375 24.25 1.375 C24.25 3.685 24.25 5.995 24.25 8.375 C25.73009643 7.39723933 27.20905144 6.4177506 28.6875 5.4375 C29.51121094 4.89222656 30.33492187 4.34695312 31.18359375 3.78515625 C33.14985925 2.53697019 33.14985925 2.53697019 34.25 1.375 C35.93608966 1.30294489 37.62500659 1.29113932 39.3125 1.3125 C40.23160156 1.32152344 41.15070313 1.33054687 42.09765625 1.33984375 C42.80792969 1.35144531 43.51820313 1.36304687 44.25 1.375 C40.91666667 4.70833333 37.58333333 8.04166667 34.25 11.375 C35.0440625 11.85710937 35.838125 12.33921875 36.65625 12.8359375 C37.6771875 13.46757813 38.698125 14.09921875 39.75 14.75 C40.7709375 15.37648438 41.791875 16.00296875 42.84375 16.6484375 C43.6378125 17.21820313 44.431875 17.78796875 45.25 18.375 C45.25 19.035 45.25 19.695 45.25 20.375 C36.37521197 21.58782353 31.27133037 18.60762644 24.25 13.375 C24.25 15.685 24.25 17.995 24.25 20.375 C18.64 20.375 13.03 20.375 7.25 20.375 C6.92 19.715 6.59 19.055 6.25 18.375 C1.96 18.375 -2.33 18.375 -6.75 18.375 C-7.08 19.035 -7.41 19.695 -7.75 20.375 C-10.72 20.375 -13.69 20.375 -16.75 20.375 C-15.05794549 17.4053712 -13.3472817 14.45023015 -11.6015625 11.51171875 C-10.53475206 9.70444283 -9.49272429 7.88093231 -8.5234375 6.01953125 C-6.35533394 2.23704841 -4.19274055 0.71063399 0 0 Z M-0.75 7.375 C-1.41 9.025 -2.07 10.675 -2.75 12.375 C-0.77 12.375 1.21 12.375 3.25 12.375 C2.28114628 10.69003702 1.28013277 9.02321244 0.25 7.375 C-0.08 7.375 -0.41 7.375 -0.75 7.375 Z " fill="#2A2928" transform="translate(194.75,63.625)"/>
<path d="M0 0 C6.43005181 -0.88082902 6.43005181 -0.88082902 10 0 C12.97765785 2.98289099 15.00621676 6.3029185 17 10 C17.5775 9.278125 18.155 8.55625 18.75 7.8125 C19.4925 6.884375 20.235 5.95625 21 5 C21.53625 4.071875 22.0725 3.14375 22.625 2.1875 C25.48910492 -0.45049138 26.46306361 -0.3125 30.25 -0.3125 C32.60125 -0.1578125 32.60125 -0.1578125 35 0 C35 6.27 35 12.54 35 19 C32.69 19 30.38 19 28 19 C27.67 16.03 27.34 13.06 27 10 C26.32904297 10.97453125 26.32904297 10.97453125 25.64453125 11.96875 C25.03996094 12.8040625 24.43539062 13.639375 23.8125 14.5 C23.22082031 15.3353125 22.62914062 16.170625 22.01953125 17.03125 C20 19 20 19 17.5 19.5625 C14.07850108 18.79266274 13.18952874 17.32639352 11.1875 14.5 C10.28064453 13.24703125 10.28064453 13.24703125 9.35546875 11.96875 C8.90816406 11.3190625 8.46085938 10.669375 8 10 C7.67 12.97 7.34 15.94 7 19 C4.69 19 2.38 19 0 19 C0 12.73 0 6.46 0 0 Z " fill="#2A2928" transform="translate(121,65)"/>
<path d="M0 0 C36.3 0 72.6 0 110 0 C110 1.32 110 2.64 110 4 C73.7 4 37.4 4 0 4 C0 2.68 0 1.36 0 0 Z " fill="#92C12B" transform="translate(131,59)"/>
<path d="M0 0 C3.74985325 -0.0871747 7.49944555 -0.14045003 11.25 -0.1875 C12.31347656 -0.21263672 13.37695312 -0.23777344 14.47265625 -0.26367188 C15.49746094 -0.27333984 16.52226563 -0.28300781 17.578125 -0.29296875 C18.52075195 -0.3086792 19.46337891 -0.32438965 20.43457031 -0.34057617 C23.48874344 0.06488362 24.84522091 0.81478795 27 3 C27.25 6.5 27.25 6.5 27 10 C27 10.99 27 11.98 27 13 C27 15 27 17 27 19 C24.69 19 22.38 19 20 19 C20 17.68 20 16.36 20 15 C16.37 15 12.74 15 9 15 C8.67 16.32 8.34 17.64 8 19 C5.66705225 19.04241723 3.33297433 19.04092937 1 19 C0 18 0 18 -0.11352539 16.23413086 C-0.10828857 15.48526611 -0.10305176 14.73640137 -0.09765625 13.96484375 C-0.09443359 13.15595703 -0.09121094 12.34707031 -0.08789062 11.51367188 C-0.07951172 10.66353516 -0.07113281 9.81339844 -0.0625 8.9375 C-0.05798828 8.08349609 -0.05347656 7.22949219 -0.04882812 6.34960938 C-0.03700373 4.23304337 -0.01906769 2.11651315 0 0 Z M8 6 C8 6.99 8 7.98 8 9 C11.63 9 15.26 9 19 9 C19.33 8.01 19.66 7.02 20 6 C16.04 6 12.08 6 8 6 Z " fill="#2A2928" transform="translate(91,65)"/>
<path d="M0 0 C3.39668836 -0.1081174 6.78992439 -0.18737188 10.1875 -0.25 C11.14720703 -0.28351563 12.10691406 -0.31703125 13.09570312 -0.3515625 C17.52095883 -0.41281171 20.24151428 -0.43194162 24.1484375 1.79296875 C26 4 26 4 26.4375 7.5625 C26 11 26 11 24 14 C20.43954823 15.18681726 17.56191663 15.09689832 13.8125 15.0625 C12.54019531 15.05347656 11.26789062 15.04445313 9.95703125 15.03515625 C8.49330078 15.01775391 8.49330078 15.01775391 7 15 C7 16.32 7 17.64 7 19 C4.69 19 2.38 19 0 19 C0 12.73 0 6.46 0 0 Z M7 6 C7 6.99 7 7.98 7 9 C10.63 9 14.26 9 18 9 C18 8.01 18 7.02 18 6 C14.37 6 10.74 6 7 6 Z " fill="#2A2828" transform="translate(3,65)"/>
<path d="M0 0 C2.64 0 5.28 0 8 0 C8 2.31 8 4.62 8 7 C11.96 7 15.92 7 20 7 C20 4.69 20 2.38 20 0 C22.64 0 25.28 0 28 0 C28 6.27 28 12.54 28 19 C25.36 19 22.72 19 20 19 C20 16.69 20 14.38 20 12 C16.04 12 12.08 12 8 12 C8 14.31 8 16.62 8 19 C5.36 19 2.72 19 0 19 C0 12.73 0 6.46 0 0 Z " fill="#292828" transform="translate(30,65)"/>
<path d="M0 0 C10.78731011 -0.02313567 21.57461436 -0.04092136 32.3619442 -0.05181217 C37.3705368 -0.05703831 42.37911246 -0.0641311 47.38769531 -0.07543945 C52.21817822 -0.08627786 57.04864482 -0.09227887 61.87913895 -0.09487724 C63.72518801 -0.09672976 65.57123615 -0.10034709 67.41727829 -0.10573006 C69.99614161 -0.11295312 72.57493685 -0.1139904 75.15380859 -0.11352539 C76.30718971 -0.1189183 76.30718971 -0.1189183 77.48387146 -0.12442017 C82.77189568 -0.11405216 82.77189568 -0.11405216 85 1 C85 1.99 85 2.98 85 4 C56.95 4 28.9 4 0 4 C0 2.68 0 1.36 0 0 Z " fill="#92C12B" transform="translate(2,59)"/>
<path d="M0 0 C3.63 0 7.26 0 11 0 C11.66 1.32 12.32 2.64 13 4 C14.32 4 15.64 4 17 4 C17.66 4.66 18.32 5.32 19 6 C19.33 5.34 19.66 4.68 20 4 C21.65 4 23.3 4 25 4 C25 2.68 25 1.36 25 0 C27.475 0.495 27.475 0.495 30 1 C31.12862175 6.36095333 31.09688221 11.55306686 31 17 C29.33388095 17.042721 27.66617115 17.04063832 26 17 C23.95301586 14.95301586 24.29954307 10.69588759 24 8 C23.01 10.97 22.02 13.94 21 17 C19.35 17 17.7 17 16 17 C15.01 14.03 14.02 11.06 13 8 C12.01 8.66 11.02 9.32 10 10 C7.3125 10.125 7.3125 10.125 5 10 C5 12.31 5 14.62 5 17 C3.35 17 1.7 17 0 17 C0 11.39 0 5.78 0 0 Z M5 3 C5 4.32 5 5.64 5 7 C5.99 7 6.98 7 8 7 C8 5.68 8 4.36 8 3 C7.01 3 6.02 3 5 3 Z " fill="#292827" transform="translate(161,92)"/>
<path d="M0 0 C4.7251397 1.53704234 6.39344356 5.52706708 8.56347656 9.73071289 C9.04300781 10.58084961 9.52253906 11.43098633 10.01660156 12.30688477 C13.43847656 18.4418178 13.43847656 18.4418178 13.43847656 19.79321289 C7.38378906 19.98852539 7.38378906 19.98852539 5.43847656 19.79321289 C4.77847656 19.13321289 4.11847656 18.47321289 3.43847656 17.79321289 C0.31033142 17.54961216 0.31033142 17.54961216 -3.18652344 17.66821289 C-4.96929687 17.6952832 -4.96929687 17.6952832 -6.78808594 17.72290039 C-7.70332031 17.74610352 -8.61855469 17.76930664 -9.56152344 17.79321289 C-9.89152344 18.45321289 -10.22152344 19.11321289 -10.56152344 19.79321289 C-13.20152344 19.79321289 -15.84152344 19.79321289 -18.56152344 19.79321289 C-16.96824924 15.45320037 -14.89689469 11.4590383 -12.56152344 7.48071289 C-12.22507812 6.83553711 -11.88863281 6.19036133 -11.54199219 5.52563477 C-8.63366656 0.66986141 -5.62827763 -0.39209986 0 0 Z M-3.56152344 6.79321289 C-4.22152344 8.44321289 -4.88152344 10.09321289 -5.56152344 11.79321289 C-3.58152344 11.79321289 -1.60152344 11.79321289 0.43847656 11.79321289 C-0.53037715 10.10824991 -1.53139066 8.44142533 -2.56152344 6.79321289 C-2.89152344 6.79321289 -3.22152344 6.79321289 -3.56152344 6.79321289 Z " fill="#2A2928" transform="translate(77.5615234375,64.206787109375)"/>
<path d="M0 0 C8.58 0 17.16 0 26 0 C26 1.98 26 3.96 26 6 C23.03 6 20.06 6 17 6 C17 10.29 17 14.58 17 19 C14.36 19 11.72 19 9 19 C8.67 14.71 8.34 10.42 8 6 C5.36 6 2.72 6 0 6 C0 4.02 0 2.04 0 0 Z " fill="#292828" transform="translate(157,65)"/>
<path d="M0 0 C1.60294922 0.01353516 1.60294922 0.01353516 3.23828125 0.02734375 C4.04652344 0.03894531 4.85476562 0.05054688 5.6875 0.0625 C4.01682325 3.40385351 0.42066496 4.21719443 -2.8671875 5.74609375 C-5.32059813 6.88964227 -5.32059813 6.88964227 -6.76171875 8.671875 C-9.06980119 10.74159124 -11.20153317 10.59786665 -14.25 10.875 C-24.15380885 12.20947758 -32.13598042 16.66409781 -39.7890625 22.9609375 C-41.3125 24.0625 -41.3125 24.0625 -43.3125 24.0625 C-43.3125 24.7225 -43.3125 25.3825 -43.3125 26.0625 C-44.3025 25.7325 -45.2925 25.4025 -46.3125 25.0625 C-34.04679541 11.80003387 -18.88360373 -0.20751213 0 0 Z " fill="#91BE2A" transform="translate(92.3125,-0.0625)"/>
<path d="M0 0 C0.33 1.98 0.66 3.96 1 6 C2.65 6.33 4.3 6.66 6 7 C5.69750921 10.32739873 5.28765829 12.5627594 3.4375 15.375 C0.61144635 17.25903577 -1.62694156 17.69617265 -5.0234375 17.51171875 C-7 17 -7 17 -10.0625 14.4375 C-12 11 -12 11 -12.0625 7.375 C-9.89568393 0.4921725 -7.01884799 -0.53991138 0 0 Z " fill="#2B2928" transform="translate(109,23)"/>
<path d="M0 0 C0.85980469 -0.01417969 1.71960938 -0.02835937 2.60546875 -0.04296875 C4.8125 0.1875 4.8125 0.1875 6.8125 2.1875 C7.0078125 5.0078125 7.0078125 5.0078125 6.9375 8.3125 C6.91945313 9.40820312 6.90140625 10.50390625 6.8828125 11.6328125 C6.85960938 12.47585937 6.83640625 13.31890625 6.8125 14.1875 C5.4925 14.1875 4.1725 14.1875 2.8125 14.1875 C2.8125 10.8875 2.8125 7.5875 2.8125 4.1875 C2.1525 4.1875 1.4925 4.1875 0.8125 4.1875 C0.8125 7.4875 0.8125 10.7875 0.8125 14.1875 C-0.8375 14.1875 -2.4875 14.1875 -4.1875 14.1875 C-4.1875 10.8875 -4.1875 7.5875 -4.1875 4.1875 C-4.8475 4.1875 -5.5075 4.1875 -6.1875 4.1875 C-6.1875 7.4875 -6.1875 10.7875 -6.1875 14.1875 C-7.5075 14.1875 -8.8275 14.1875 -10.1875 14.1875 C-10.1875 9.8975 -10.1875 5.6075 -10.1875 1.1875 C-6.53187536 0.45637507 -3.64859677 0.02759907 0 0 Z " fill="#292827" transform="translate(88.1875,94.8125)"/>
<path d="M0 0 C2 1.9375 2 1.9375 3 5 C3.02676952 8.40508243 2.78107025 11.6819196 2 15 C-0.59335905 17.59335905 -2.48747032 17.27726563 -6.02734375 17.36328125 C-8.64914643 16.88045422 -9.47490975 16.18003699 -11 14 C-11.81791688 9.17355357 -11.87793368 4.54516328 -9.4375 0.25 C-5.86125944 -1.58396952 -3.79071204 -1.17167463 0 0 Z M-6 3 C-6 6.63 -6 10.26 -6 14 C-4.68 13.67 -3.36 13.34 -2 13 C-2 10.03 -2 7.06 -2 4 C-3.32 3.67 -4.64 3.34 -6 3 Z " fill="#292827" transform="translate(12,92)"/>
<path d="M0 0 C1.65 0 3.3 0 5 0 C5.33 0.99 5.66 1.98 6 3 C8.475 3.99 8.475 3.99 11 5 C11 8.96 11 12.92 11 17 C9.35 16.67 7.7 16.34 6 16 C5.67 16.33 5.34 16.66 5 17 C3.35 17 1.7 17 0 17 C0 11.39 0 5.78 0 0 Z " fill="#292827" transform="translate(47,92)"/>
<path d="M0 0 C1.65 0 3.3 0 5 0 C5.33 0.99 5.66 1.98 6 3 C7.32303717 3.3721042 8.65737935 3.70630173 10 4 C11.92572521 7.85145043 11.04883218 12.80043252 11 17 C7.37 17 3.74 17 0 17 C0 11.39 0 5.78 0 0 Z " fill="#292827" transform="translate(28,92)"/>
<path d="M0 0 C1.17673198 2.35346396 1.16623866 3.8806033 1.1875 6.5 C1.20167969 7.2940625 1.21585938 8.088125 1.23046875 8.90625 C1 11 1 11 -1 13 C-3.625 13.125 -3.625 13.125 -6 13 C-6 14.32 -6 15.64 -6 17 C-7.32 17 -8.64 17 -10 17 C-10 11.39 -10 5.78 -10 0 C-3.95604396 -1.20879121 -3.95604396 -1.20879121 0 0 Z M-6 3 C-6 4.98 -6 6.96 -6 9 C-5.01 9.495 -5.01 9.495 -4 10 C-4 7.69 -4 5.38 -4 3 C-4.66 3 -5.32 3 -6 3 Z " fill="#292828" transform="translate(26,96)"/>
<path d="M0 0 C1.32 0 2.64 0 4 0 C4 5.61 4 11.22 4 17 C-2.8359375 17.1953125 -2.8359375 17.1953125 -5 17 C-7.41486943 14.58513057 -7.2961925 13.87292211 -7.3125 10.5625 C-7.32925781 9.78003906 -7.34601563 8.99757813 -7.36328125 8.19140625 C-6.91856176 5.50874352 -6.16630139 4.60117929 -4 3 C-1.8125 3.3125 -1.8125 3.3125 0 4 C0 2.68 0 1.36 0 0 Z M-2 7 C-2 9.31 -2 11.62 -2 14 C-1.34 13.67 -0.68 13.34 0 13 C0 11.35 0 9.7 0 8 C-0.66 7.67 -1.32 7.34 -2 7 Z " fill="#282726" transform="translate(231,92)"/>
<path d="M0 0 C2.8125 0.75 2.8125 0.75 3.8125 1.75 C3.88494053 3.76964199 3.89627188 5.79167124 3.875 7.8125 C3.86597656 8.91722656 3.85695313 10.02195312 3.84765625 11.16015625 C3.83605469 12.01480469 3.82445313 12.86945313 3.8125 13.75 C0.5125 13.75 -2.7875 13.75 -6.1875 13.75 C-7.3125 8 -7.3125 8 -6.1875 5.75 C-6.5175 4.76 -6.8475 3.77 -7.1875 2.75 C-4.59450907 0.25673949 -3.67556276 -0.28827943 0 0 Z M-2.1875 2.75 C-2.1875 3.41 -2.1875 4.07 -2.1875 4.75 C-1.5275 4.42 -0.8675 4.09 -0.1875 3.75 C-0.8475 3.42 -1.5075 3.09 -2.1875 2.75 Z M-2.1875 7.75 C-2.1875 8.74 -2.1875 9.73 -2.1875 10.75 C-1.5275 10.75 -0.8675 10.75 -0.1875 10.75 C-0.1875 9.76 -0.1875 8.77 -0.1875 7.75 C-0.8475 7.75 -1.5075 7.75 -2.1875 7.75 Z " fill="#292828" transform="translate(66.1875,95.25)"/>
<path d="M0 0 C1.65 0 3.3 0 5 0 C5 4.29 5 8.58 5 13 C7.31 13 9.62 13 12 13 C12 14.32 12 15.64 12 17 C8.04 17 4.08 17 0 17 C0 11.39 0 5.78 0 0 Z " fill="#292827" transform="translate(205,92)"/>
<path d="M0 0 C2.375 0.875 2.375 0.875 4.375 2.875 C4.375 3.865 4.375 4.855 4.375 5.875 C2.725 5.545 1.075 5.215 -0.625 4.875 C-0.625 6.525 -0.625 8.175 -0.625 9.875 C-0.295 9.215 0.035 8.555 0.375 7.875 C1.695 7.875 3.015 7.875 4.375 7.875 C3.5 12.75 3.5 12.75 2.375 13.875 C-1.0625 14.125 -1.0625 14.125 -4.625 13.875 C-7.10538907 10.1544164 -7.08837203 8.27703429 -6.625 3.875 C-4.56869278 0.82861894 -3.73077528 -0.17765597 0 0 Z " fill="#292827" transform="translate(108.625,95.125)"/>
<path d="M0 0 C0.928125 0.20625 1.85625 0.4125 2.8125 0.625 C3.7509979 5.08286502 3.8405811 8.16998188 2.8125 12.625 C1.8125 13.625 1.8125 13.625 -1.75 13.6875 C-2.884375 13.666875 -4.01875 13.64625 -5.1875 13.625 C-6.1875 8.875 -6.1875 8.875 -6.1875 6.625 C-6.249375 5.8 -6.31125 4.975 -6.375 4.125 C-6.313125 3.3 -6.25125 2.475 -6.1875 1.625 C-3.1875 -0.375 -3.1875 -0.375 0 0 Z M-2.1875 2.625 C-1.8575 3.615 -1.5275 4.605 -1.1875 5.625 C-0.5275 5.295 0.1325 4.965 0.8125 4.625 C-0.1775 3.965 -1.1675 3.305 -2.1875 2.625 Z M-2.1875 8.625 C-2.1875 9.285 -2.1875 9.945 -2.1875 10.625 C-1.5275 10.295 -0.8675 9.965 -0.1875 9.625 C-0.8475 9.295 -1.5075 8.965 -2.1875 8.625 Z " fill="#292827" transform="translate(120.1875,95.375)"/>
<path d="M0 0 C1.32 0 2.64 0 4 0 C4.99250545 5.70690634 5.10477512 11.21408489 5 17 C3.35 17 1.7 17 0 17 C-1.24687668 14.50624665 -1.40125881 12.3981939 -1.6875 9.625 C-1.79449219 8.66851562 -1.90148438 7.71203125 -2.01171875 6.7265625 C-1.99936983 3.85337956 -1.49335658 2.41454588 0 0 Z " fill="#292828" transform="translate(41,92)"/>
<path d="M0 0 C1.8125 0.0625 1.8125 0.0625 4 1 C7.11084531 6.04171482 7.22134025 9.85528697 6.6171875 15.66796875 C5.89442166 18.39892576 4.95421213 19.96631035 3 22 C2.01 22 1.02 22 0 22 C0.16242188 21.47277344 0.32484375 20.94554688 0.4921875 20.40234375 C1.12418545 17.41250728 1.13206389 14.61763038 1.125 11.5625 C1.12757813 10.45003906 1.13015625 9.33757812 1.1328125 8.19140625 C1.01399223 5.33622508 0.65353269 2.77492054 0 0 Z " fill="#292827" transform="translate(146,91)"/>
<path d="M0 0 C1.32 0.33 2.64 0.66 4 1 C3.67 1.804375 3.34 2.60875 3 3.4375 C1.17453854 9.94070646 1.4199456 15.7111174 4 22 C2.68 22 1.36 22 0 22 C-3.32824973 16.73027126 -3.76498303 12.06101939 -3 6 C-1.5 2.375 -1.5 2.375 0 0 Z " fill="#292827" transform="translate(135,91)"/>
<path d="M0 0 C1.65 0 3.3 0 5 0 C5 5.61 5 11.22 5 17 C3.35 17 1.7 17 0 17 C0 11.39 0 5.78 0 0 Z " fill="#292928" transform="translate(140,92)"/>
<path d="M0 0 C1.32 0 2.64 0 4 0 C4 1.32 4 2.64 4 4 C4.66 4 5.32 4 6 4 C5.67 4.99 5.34 5.98 5 7 C4.86843473 10.68382769 4.83017862 13.49053585 6 17 C4.33388095 17.042721 2.66617115 17.04063832 1 17 C0 16 0 16 -0.09765625 13.93359375 C-0.08025391 12.69802734 -0.08025391 12.69802734 -0.0625 11.4375 C-0.05347656 10.61121094 -0.04445312 9.78492187 -0.03515625 8.93359375 C-0.02355469 8.29550781 -0.01195312 7.65742187 0 7 C-0.66 7 -1.32 7 -2 7 C-2 6.01 -2 5.02 -2 4 C-1.34 4 -0.68 4 0 4 C0 2.68 0 1.36 0 0 Z " fill="#292827" transform="translate(218,92)"/>
<path d="M0 0 C1.65 0 3.3 0 5 0 C5 5.61 5 11.22 5 17 C3.68 17 2.36 17 1 17 C-0.53266582 13.93466836 -0.10276471 10.73245728 -0.0625 7.375 C-0.05798828 6.66859375 -0.05347656 5.9621875 -0.04882812 5.234375 C-0.03703875 3.48954725 -0.01910324 1.744763 0 0 Z " fill="#292927" transform="translate(71,92)"/>
<path d="M0 0 C1.65 0 3.3 0 5 0 C5 4.29 5 8.58 5 13 C3.35 13 1.7 13 0 13 C0 8.71 0 4.42 0 0 Z " fill="#292827" transform="translate(96,96)"/>
<path d="M0 0 C2.625 0.375 2.625 0.375 5 1 C5.625 3.375 5.625 3.375 6 6 C4 8 4 8 1.4375 8.1875 C-1 8 -1 8 -2 7 C-2.1875 4.5625 -2.1875 4.5625 -2 2 C-1.34 1.34 -0.68 0.68 0 0 Z " fill="#EEF6FA" transform="translate(111,22)"/>
<path d="M0 0 C3.81684226 1.55500981 6.19195732 4.03595495 9 7 C8.34 7.66 7.68 8.32 7 9 C5.82737096 7.88121617 4.66204862 6.75476949 3.5 5.625 C2.8503125 4.99851562 2.200625 4.37203125 1.53125 3.7265625 C0 2 0 2 0 0 Z " fill="#81AA27" transform="translate(55,36)"/>
<path d="M0 0 C1.32 0 2.64 0 4 0 C4 1.32 4 2.64 4 4 C2.68 4 1.36 4 0 4 C0 2.68 0 1.36 0 0 Z " fill="#2A2928" transform="translate(237,105)"/>
<path d="M0 0 C1.32 0 2.64 0 4 0 C4 1.32 4 2.64 4 4 C2.68 4 1.36 4 0 4 C0 2.68 0 1.36 0 0 Z " fill="#292828" transform="translate(193,105)"/>
<path d="M0 0 C1.65 0 3.3 0 5 0 C5 0.99 5 1.98 5 3 C3.35 3 1.7 3 0 3 C0 2.01 0 1.02 0 0 Z " fill="#292827" transform="translate(96,92)"/>
</svg>
