<svg width="104" height="81" viewBox="0 0 104 81" fill="none" xmlns="http://www.w3.org/2000/svg">
<path d="M47.9427 54.0208H56.526V62.9097H47.9427V54.0208ZM47.9427 18.4653H56.526V45.1319H47.9427V18.4653ZM52.2344 0.6875C41.9904 0.6875 32.166 4.90177 24.9224 12.4032C17.6788 19.9047 13.6094 30.0788 13.6094 40.6875C13.6094 51.2962 17.6788 61.4703 24.9224 68.9718C32.166 76.4732 41.9904 80.6875 52.2344 80.6875C62.4784 80.6875 72.3028 76.4732 79.5464 68.9718C86.79 61.4703 90.8594 51.2962 90.8594 40.6875C90.8594 30.0788 86.79 19.9047 79.5464 12.4032C72.3028 4.90177 62.4784 0.6875 52.2344 0.6875ZM52.2344 71.7986C35.6685 71.7986 22.1927 57.8431 22.1927 40.6875C22.1927 23.5319 35.6685 9.57639 52.2344 9.57639C68.8002 9.57639 82.276 23.5319 82.276 40.6875C82.276 57.8431 68.8002 71.7986 52.2344 71.7986ZM88.7135 78.4653C97.9835 68.7319 103.734 55.3986 103.734 40.6875C103.734 25.9764 97.9835 12.6431 88.7135 2.90972L84.0785 7.70972C92.2327 16.2431 97.2969 27.8431 97.2969 40.6875C97.2969 53.5764 92.2327 65.132 84.0785 73.6653L88.7135 78.4653ZM20.3902 73.6653C12.236 65.132 7.17188 53.5764 7.17188 40.6875C7.17188 27.8431 12.236 16.2431 20.3902 7.70972L15.7552 2.90972C6.48521 12.6431 0.734375 25.9764 0.734375 40.6875C0.734375 55.3986 6.48521 68.7319 15.7552 78.4653L20.3902 73.6653Z" fill="#2E3192"/>
</svg>
