<svg width="29" height="29" viewBox="0 0 29 29" fill="none" xmlns="http://www.w3.org/2000/svg">
<path d="M1.93457 7.05312V5.95178C1.93457 2.5965 4.43182 1.07252 7.49256 2.57087L13.1786 5.36269C14.408 5.96459 15.4197 7.56538 15.4197 8.92286V27.6074H4.63673C3.15118 27.6074 1.93457 26.4164 1.93457 24.9565V12.2653" stroke="#2E3192" stroke-width="2.41584" stroke-linecap="round" stroke-linejoin="round"/>
<path d="M27.5464 18.7195V23.5604C27.5464 26.3265 26.2657 27.6072 23.4996 27.6072H15.4187V12.7773L16.0206 12.9054L21.7835 14.1989L24.3832 14.7751C26.0736 15.1465 27.4567 16.0174 27.5336 18.4762C27.5464 18.553 27.5464 18.6299 27.5464 18.7195Z" stroke="#2E3192" stroke-width="2.41584" stroke-linecap="round" stroke-linejoin="round"/>
<path d="M6.45435 10.959H10.8982" stroke="#2E3192" stroke-width="2.41584" stroke-linecap="round" stroke-linejoin="round"/>
<path d="M6.45435 16.082H10.8982" stroke="#2E3192" stroke-width="2.41584" stroke-linecap="round" stroke-linejoin="round"/>
<path d="M21.7844 14.1997V18.3234C21.7844 19.9114 20.4909 21.2048 18.9029 21.2048C17.3149 21.2048 16.0215 19.9114 16.0215 18.3234V12.9062L21.7844 14.1997Z" stroke="#2E3192" stroke-width="2.41584" stroke-linecap="round" stroke-linejoin="round"/>
<path d="M27.5348 18.4766C27.4579 19.9877 26.2029 21.2043 24.6661 21.2043C23.0781 21.2043 21.7847 19.9109 21.7847 18.3229V14.1992L24.3844 14.7755C26.0748 15.1469 27.4579 16.0177 27.5348 18.4766Z" stroke="#2E3192" stroke-width="2.41584" stroke-linecap="round" stroke-linejoin="round"/>
</svg>
