<svg width="33" height="25" viewBox="0 0 33 25" fill="none" xmlns="http://www.w3.org/2000/svg">
<path d="M22.8945 14.2656C24.8961 15.7188 26.2987 17.6875 26.2987 20.3125V25H32.1429V20.3125C32.1429 16.9062 26.9269 14.8906 22.8945 14.2656Z" fill="#2E3192"/>
<path d="M20.4545 12.5C23.6834 12.5 26.2987 9.70312 26.2987 6.25C26.2987 2.79688 23.6834 0 20.4545 0C19.7679 0 19.125 0.15625 18.5114 0.375C19.724 1.98437 20.4545 4.03125 20.4545 6.25C20.4545 8.46875 19.724 10.5156 18.5114 12.125C19.125 12.3438 19.7679 12.5 20.4545 12.5Z" fill="#2E3192"/>
<path d="M11.6883 12.5C14.9172 12.5 17.5325 9.70312 17.5325 6.25C17.5325 2.79688 14.9172 0 11.6883 0C8.45942 0 5.84416 2.79688 5.84416 6.25C5.84416 9.70312 8.45942 12.5 11.6883 12.5Z" fill="#2E3192"/>
<path d="M11.6883 14.0625C7.78734 14.0625 0 16.1562 0 20.3125V25H23.3766V20.3125C23.3766 16.1562 15.5893 14.0625 11.6883 14.0625Z" fill="#2E3192"/>
</svg>
