<svg width="18" height="18" viewBox="0 0 18 18" fill="none" xmlns="http://www.w3.org/2000/svg">
<path d="M17.3617 3.37322C15.8767 3.2376 14.3918 3.13589 12.8976 3.05961V3.05113L12.6947 1.94925C12.5563 1.16945 12.3534 -0.000244141 10.1951 -0.000244141H7.77861C5.62954 -0.000244141 5.42663 1.11859 5.27906 1.94077L5.08537 3.0257C4.22759 3.07656 3.36982 3.12742 2.51205 3.2037L0.630486 3.37322C0.243105 3.40712 -0.0335956 3.72074 0.00329783 4.06826C0.0401913 4.41577 0.372232 4.67005 0.759613 4.63615L2.64118 4.46663C7.47424 4.02588 12.3442 4.1954 17.2326 4.64463H17.3063C17.6568 4.64463 17.9612 4.39882 17.9981 4.06826C18.0258 3.72074 17.7491 3.40712 17.3617 3.37322Z" fill="#ED2024"/>
<path d="M15.7422 5.60815C15.5209 5.39625 15.2165 5.27759 14.9029 5.27759H3.24462C2.93103 5.27759 2.61743 5.39625 2.4053 5.60815C2.19316 5.82005 2.07326 6.10824 2.0917 6.4049L2.66355 15.1013C2.76501 16.3897 2.89413 18.0001 6.11309 18.0001H12.0344C15.2534 18.0001 15.3826 16.3982 15.484 15.1013L16.0558 6.41338C16.0743 6.10824 15.9544 5.82005 15.7422 5.60815ZM10.6048 13.7536H7.53344C7.15533 13.7536 6.84173 13.4654 6.84173 13.1179C6.84173 12.7704 7.15533 12.4822 7.53344 12.4822H10.6048C10.983 12.4822 11.2966 12.7704 11.2966 13.1179C11.2966 13.4654 10.983 13.7536 10.6048 13.7536ZM11.3796 10.3632H6.76794C6.38979 10.3632 6.07619 10.075 6.07619 9.72751C6.07619 9.37999 6.38979 9.09181 6.76794 9.09181H11.3796C11.7577 9.09181 12.0713 9.37999 12.0713 9.72751C12.0713 10.075 11.7577 10.3632 11.3796 10.3632Z" fill="#ED2024"/>
</svg>
