<svg width="32" height="57" viewBox="0 0 32 57" fill="none" xmlns="http://www.w3.org/2000/svg">
<path d="M24.0815 8.64062C25.7742 8.64062 27.1411 9.87858 27.1411 11.4111V46.1901C27.1411 47.7222 25.7742 48.9606 24.0815 48.9606H7.95524C6.26255 48.9606 4.8956 47.7227 4.8956 46.1901V11.4111C4.8956 9.87903 6.26255 8.64062 7.95524 8.64062H24.0815ZM9.51342 9.69263C9.36176 9.69263 9.2163 9.75251 9.10906 9.85908C9.00182 9.96565 8.94157 10.1102 8.94157 10.2609C8.94157 10.4116 9.00182 10.5562 9.10906 10.6628C9.2163 10.7693 9.36176 10.8292 9.51342 10.8292C9.66508 10.8292 9.81054 10.7693 9.91778 10.6628C10.025 10.5562 10.0853 10.4116 10.0853 10.2609C10.0853 10.1102 10.025 9.96565 9.91778 9.85908C9.81054 9.75251 9.66508 9.69263 9.51342 9.69263ZM17.9485 9.99087H14.0882C13.9967 9.99087 13.9167 10.0732 13.9167 10.1754C13.9167 10.2777 13.9972 10.36 14.0882 10.36H17.9489C18.0404 10.36 18.1205 10.2782 18.1205 10.1754C18.1205 10.0732 18.0395 9.99087 17.9485 9.99087ZM24.0673 10.19C23.963 10.19 23.8811 10.2709 23.8811 10.3746C23.8811 10.4782 23.963 10.5732 24.0673 10.5732C24.1716 10.5732 24.253 10.4778 24.253 10.3746C24.253 10.2709 24.1716 10.19 24.0673 10.19ZM23.4094 10.2036C23.3111 10.2036 23.2237 10.2764 23.2237 10.3746C23.2237 10.4723 23.3106 10.5592 23.4094 10.5592C23.5082 10.5592 23.581 10.4728 23.581 10.3746C23.581 10.2764 23.5082 10.2041 23.4094 10.2041V10.2036ZM26.126 12.0653H5.91075V44.6985H26.126V12.0653ZM18.4631 46.1051H13.5736C13.235 46.1051 12.9592 46.3192 12.9592 46.5884V47.1426C12.9592 47.4117 13.235 47.6254 13.5736 47.6254H18.4631C18.8017 47.6254 19.0775 47.4117 19.0775 47.1426V46.5884C19.0775 46.3192 18.8017 46.1051 18.4631 46.1051Z" fill="#2E3192"/>
<path fill-rule="evenodd" clip-rule="evenodd" d="M12.3246 27.8227L18.4312 28.964C20.7792 29.4021 20.249 31.8638 18.5401 32.0804H13.9398V30.3829H14.2003C14.2362 30.383 14.2715 30.374 14.3026 30.3567C14.3337 30.3394 14.3595 30.3144 14.3774 30.2844C14.3965 30.2549 14.4066 30.2207 14.4066 30.1859C14.4066 30.1511 14.3965 30.117 14.3774 30.0875L13.3088 28.4647C13.2911 28.4342 13.2653 28.4088 13.2341 28.3911C13.2029 28.3734 13.1673 28.364 13.1312 28.364C13.095 28.364 13.0594 28.3734 13.0282 28.3911C12.997 28.4088 12.9712 28.4342 12.9536 28.4647L11.8778 30.0855C11.8587 30.115 11.8486 30.1491 11.8486 30.184C11.8486 30.2188 11.8587 30.2529 11.8778 30.2824C11.8957 30.3125 11.9215 30.3374 11.9526 30.3547C11.9837 30.372 12.019 30.381 12.0549 30.3809H12.3317V33.6657H18.3681C22.198 33.6519 22.8545 28.514 18.9696 27.4998L13.9408 26.5663V24.0948H17.8083C18.5432 24.0948 19.0032 24.5871 19.1223 25.2429L18.9187 25.2203C18.8834 25.2144 18.847 25.2174 18.8132 25.229C18.7794 25.2405 18.7491 25.2602 18.7254 25.2862C18.7001 25.312 18.6831 25.3444 18.6764 25.3793C18.6698 25.4143 18.6737 25.4503 18.6877 25.4832L19.4663 27.2467C19.4781 27.2796 19.4987 27.3088 19.526 27.3315C19.5533 27.3541 19.5863 27.3694 19.6217 27.3757C19.6571 27.382 19.6935 27.3791 19.7274 27.3674C19.7612 27.3556 19.7912 27.3354 19.8144 27.3087L21.1538 25.9036C21.1774 25.8773 21.1933 25.8454 21.2 25.8112C21.2067 25.777 21.204 25.7417 21.192 25.7089C21.18 25.6761 21.1592 25.6469 21.1317 25.6244C21.1043 25.6018 21.0712 25.5868 21.0357 25.5807L20.7914 25.5482C20.8403 23.9018 19.8123 22.543 17.5692 22.543H12.3246V27.8227Z" fill="#2E3192"/>
</svg>
