<svg width="31" height="40" viewBox="0 0 31 40" fill="none" xmlns="http://www.w3.org/2000/svg">
<path d="M30.2196 24.98L28.2089 21.66C27.7866 20.92 27.4046 19.52 27.4046 18.7V13.64C27.4046 8.94 24.6298 4.88 20.6285 2.98C19.5829 1.14 17.6527 0 15.4409 0C13.2492 0 11.2788 1.18 10.2333 3.04C6.31239 4.98 3.59794 9 3.59794 13.64V18.7C3.59794 19.52 3.21591 20.92 2.79366 21.64L0.762852 24.98C-0.041429 26.32 -0.222392 27.8 0.280284 29.16C0.762852 30.5 1.90895 31.54 3.39687 32.04C7.29764 33.36 11.3995 34 15.5012 34C19.6031 34 23.7049 33.36 27.6057 32.06C29.0131 31.6 30.0989 30.54 30.6217 29.16C31.1445 27.78 31.0037 26.26 30.2196 24.98Z" fill="#2E3192"/>
<path d="M21.1496 36.0201C20.3051 38.3401 18.0732 40.0001 15.4593 40.0001C13.8708 40.0001 12.3025 39.3601 11.1966 38.2201C10.5531 37.6201 10.0706 36.8201 9.78906 36.0001C10.0505 36.0401 10.3118 36.0601 10.5933 36.1001C11.0558 36.1601 11.5384 36.2201 12.021 36.2601C13.1671 36.3601 14.3333 36.4201 15.4995 36.4201C16.6456 36.4201 17.7917 36.3601 18.9177 36.2601C19.3399 36.2201 19.7622 36.2001 20.1643 36.1401C20.486 36.1001 20.8077 36.0601 21.1496 36.0201Z" fill="#2E3192"/>
</svg>
