<svg width="23" height="25" viewBox="0 0 23 25" fill="none" xmlns="http://www.w3.org/2000/svg">
<path d="M9.02673 22.8794C9.02673 24.0457 8.02726 25 6.80569 25C5.58412 25 4.58465 24.0457 4.58465 22.8794C4.58465 21.713 5.58412 20.7587 6.80569 20.7587C8.02726 20.7587 9.02673 21.713 9.02673 22.8794ZM17.9109 20.7587C16.6893 20.7587 15.6898 21.713 15.6898 22.8794C15.6898 24.0457 16.6893 25 17.9109 25C19.1325 25 20.1319 24.0457 20.1319 22.8794C20.1319 21.713 19.1325 20.7587 17.9109 20.7587ZM7.0278 17.3657V17.2597L8.02726 15.4571H16.2451C17.0225 15.4571 17.7998 15.033 18.133 14.3968L22.464 6.97454L20.5761 5.91422L16.2451 13.3365H8.47147L3.80729 3.79358H0.142578V5.91422H2.36362L6.36148 13.9727L4.80676 16.5174C4.69571 16.8355 4.58465 17.1536 4.58465 17.5778C4.58465 18.7441 5.58412 19.6984 6.80569 19.6984H20.1319V17.5778H7.2499C7.13885 17.5778 7.0278 17.4717 7.0278 17.3657Z" fill="#2E3192"/>
<path d="M12.5057 0C9.45179 0 6.95312 2.38572 6.95312 5.30161C6.95312 8.21749 9.45179 10.6032 12.5057 10.6032C15.5596 10.6032 18.0583 8.21749 18.0583 5.30161C18.0583 2.38572 15.5596 0 12.5057 0ZM11.3952 7.95241L8.6189 5.30161L9.40182 4.55408L11.3952 6.45205L15.6096 2.42814L16.3925 3.18096L11.3952 7.95241Z" fill="#2E3192"/>
</svg>
