<svg width="40" height="40" viewBox="0 0 40 40" fill="none" xmlns="http://www.w3.org/2000/svg">
<path d="M33.334 3.3335H13.334C11.5007 3.3335 10.0007 4.8335 10.0007 6.66683V26.6668C10.0007 28.5002 11.5007 30.0002 13.334 30.0002H33.334C35.1673 30.0002 36.6673 28.5002 36.6673 26.6668V6.66683C36.6673 4.8335 35.1673 3.3335 33.334 3.3335ZM19.1673 15.8335C19.1673 17.2168 18.0507 18.3335 16.6673 18.3335H15.0007V20.4168C15.0007 21.1002 14.434 21.6668 13.7507 21.6668C13.0673 21.6668 12.5007 21.1002 12.5007 20.4168V13.3335C12.5007 12.4168 13.2507 11.6668 14.1673 11.6668H16.6673C18.0507 11.6668 19.1673 12.7835 19.1673 14.1668V15.8335ZM27.5007 19.1668C27.5007 20.5502 26.384 21.6668 25.0007 21.6668H21.6673C21.2007 21.6668 20.834 21.3002 20.834 20.8335V12.5002C20.834 12.0335 21.2007 11.6668 21.6673 11.6668H25.0007C26.384 11.6668 27.5007 12.7835 27.5007 14.1668V19.1668ZM34.1673 12.9168C34.1673 13.6002 33.6007 14.1668 32.9173 14.1668H31.6673V15.8335H32.9173C33.6007 15.8335 34.1673 16.4002 34.1673 17.0835C34.1673 17.7668 33.6007 18.3335 32.9173 18.3335H31.6673V20.4168C31.6673 21.1002 31.1007 21.6668 30.4173 21.6668C29.734 21.6668 29.1673 21.1002 29.1673 20.4168V13.3335C29.1673 12.4168 29.9173 11.6668 30.834 11.6668H32.9173C33.6007 11.6668 34.1673 12.2335 34.1673 12.9168ZM15.0007 15.8335H16.6673V14.1668H15.0007V15.8335ZM5.00065 10.0002C4.08398 10.0002 3.33398 10.7502 3.33398 11.6668V33.3335C3.33398 35.1668 4.83398 36.6668 6.66732 36.6668H28.334C29.2507 36.6668 30.0007 35.9168 30.0007 35.0002C30.0007 34.0835 29.2507 33.3335 28.334 33.3335H8.33398C7.41732 33.3335 6.66732 32.5835 6.66732 31.6668V11.6668C6.66732 10.7502 5.91732 10.0002 5.00065 10.0002ZM23.334 19.1668H25.0007V14.1668H23.334V19.1668Z" fill="#2E3192"/>
</svg>
