<svg width="31" height="23" viewBox="0 0 31 23" fill="none" xmlns="http://www.w3.org/2000/svg">
<path d="M30.1426 8.34173C26.8534 9.6165 23.6208 10.8359 20.3883 12.0552C19.9346 12.2215 19.481 12.3877 19.0273 12.554C18.8571 12.6094 18.6303 12.554 18.5169 12.4432C17.4961 11.2793 16.4753 10.0599 15.3978 8.78513C18.8004 7.51036 22.0896 6.23558 25.549 4.90539C25.3222 4.79454 25.2087 4.73911 25.0953 4.73911C21.8628 3.68604 18.6303 2.63296 15.3978 1.57989C15.2276 1.52447 14.9441 1.52447 14.774 1.57989C11.5414 2.63296 8.25222 3.74146 5.0197 4.79454C4.90628 4.84996 4.84957 4.84996 4.62273 4.96081C8.08209 6.29101 11.428 7.56578 14.774 8.84055C13.6965 10.1153 12.6757 11.3347 11.5982 12.554C11.4847 12.6649 11.2012 12.6649 11.031 12.554C8.02538 11.4455 5.0197 10.2816 2.07074 9.11768C1.44693 8.89598 0.823107 8.61885 0.142578 8.39716C0.426132 8.12003 0.652975 7.84291 0.879818 7.62121C1.39021 7.06696 1.95732 6.56813 2.46772 5.95846C3.26167 4.96081 4.28246 4.40656 5.47339 4.01859C8.53577 3.07636 11.5414 2.02329 14.6038 1.02564C14.8874 0.914792 15.2276 0.914792 15.5112 1.02564C19.0273 2.13414 22.6 3.29806 26.1161 4.46199C26.343 4.51741 26.6265 4.68369 26.7966 4.90539C27.9309 5.95846 29.0084 7.12238 30.1426 8.34173Z" fill="#2E3192"/>
<path d="M15.3076 22.0574C15.3076 17.999 15.3076 13.8842 15.3076 9.71301C15.8223 10.333 16.337 10.8967 16.7945 11.4604C17.252 12.0241 17.7095 12.5314 18.167 13.095C18.3958 13.3769 18.5673 13.3769 18.8533 13.2641C21.2551 12.3623 23.5998 11.404 26.0017 10.5022C26.1733 10.4458 26.3448 10.3894 26.5164 10.3331C26.5164 10.4458 26.5164 10.5585 26.5164 10.6713C26.5164 12.7005 26.5164 14.7297 26.5164 16.7589C26.5164 16.9843 26.4592 17.1534 26.2305 17.2662C22.6848 18.8445 19.082 20.4227 15.4792 22.0574C15.4792 22.0574 15.422 22.0574 15.3076 22.0574Z" fill="#2E3192"/>
<path d="M14.6482 22.0574C13.3965 21.4937 12.2586 20.9864 11.0637 20.4791C8.67402 19.4081 6.28432 18.3372 3.89463 17.3225C3.55325 17.2098 3.43945 17.0407 3.43945 16.6461C3.43945 14.6733 3.43945 12.7568 3.43945 10.784C3.43945 10.6149 3.43945 10.5021 3.43945 10.2767C4.5774 10.7276 5.65845 11.1222 6.7395 11.5731C8.16194 12.1368 9.64127 12.7005 11.0637 13.2641C11.4051 13.4332 11.5758 13.3205 11.8034 13.0387C12.7137 11.9677 13.6241 10.8404 14.5913 9.71301C14.6482 13.8278 14.6482 17.8862 14.6482 22.0574Z" fill="#2E3192"/>
</svg>
