<svg width="51" height="50" viewBox="0 0 51 50" fill="none" xmlns="http://www.w3.org/2000/svg">
<path d="M31.6908 28.8679H30.3358L29.8555 28.4048C31.5945 26.3877 32.5503 23.8125 32.5485 21.1492C32.5485 18.9441 31.8946 16.7885 30.6695 14.9551C29.4444 13.1216 27.7031 11.6925 25.6659 10.8487C23.6286 10.0048 21.3869 9.78404 19.2241 10.2142C17.0614 10.6444 15.0748 11.7063 13.5155 13.2655C11.9563 14.8248 10.8944 16.8114 10.4642 18.9741C10.034 21.1369 10.2548 23.3786 11.0987 25.4159C11.9425 27.4531 13.3716 29.1944 15.2051 30.4195C17.0385 31.6446 19.1941 32.2985 21.3992 32.2985C24.1608 32.2985 26.6994 31.2864 28.6548 29.6055L29.1179 30.0858V31.4408L37.6943 40L40.25 37.4443L31.6908 28.8679ZM21.3992 28.8679C17.1282 28.8679 13.6805 25.4202 13.6805 21.1492C13.6805 16.8782 17.1282 13.4305 21.3992 13.4305C25.6702 13.4305 29.1179 16.8782 29.1179 21.1492C29.1179 25.4202 25.6702 28.8679 21.3992 28.8679Z" fill="white"/>
</svg>
