<svg width="26" height="25" viewBox="0 0 26 25" fill="none" xmlns="http://www.w3.org/2000/svg">
<path d="M13.9796 2.2814e-06C14.3471 2.2814e-06 14.6759 0.228749 14.7996 0.571245L15.6821 3.01747C15.9984 3.09622 16.2696 3.17496 16.4996 3.25746C16.7508 3.34746 17.0746 3.48371 17.4746 3.66996L19.5296 2.58247C19.6973 2.49361 19.8893 2.46153 20.0768 2.49105C20.2644 2.52058 20.4372 2.61011 20.5695 2.74622L22.377 4.61495C22.617 4.86369 22.6845 5.22744 22.5495 5.54494L21.5858 7.80366C21.7458 8.0974 21.8733 8.34865 21.9708 8.55865C22.0758 8.7874 22.2058 9.10239 22.3608 9.50864L24.607 10.4711C24.9445 10.6149 25.1532 10.9524 25.1307 11.3136L24.9657 13.9073C24.9545 14.0758 24.894 14.2373 24.7918 14.3718C24.6895 14.5062 24.5501 14.6077 24.3908 14.6636L22.2633 15.4198C22.202 15.7136 22.1383 15.9648 22.0708 16.1773C21.9619 16.5055 21.8376 16.8283 21.6983 17.1448L22.767 19.5073C22.8425 19.6733 22.8628 19.859 22.825 20.0374C22.7872 20.2158 22.6933 20.3774 22.557 20.4985L20.5245 22.3135C20.3907 22.4325 20.2237 22.5078 20.0458 22.5292C19.868 22.5507 19.6879 22.5173 19.5296 22.4335L17.4346 21.3235C17.1068 21.497 16.7687 21.6502 16.4221 21.7822L15.5071 22.1247L14.6946 24.3747C14.6344 24.5395 14.5258 24.6822 14.383 24.7841C14.2403 24.8861 14.07 24.9425 13.8946 24.946L11.5197 24.9997C11.3396 25.0044 11.1625 24.9532 11.0128 24.8532C10.863 24.7531 10.748 24.6091 10.6834 24.441L9.72593 21.9072C9.39924 21.7956 9.07578 21.6747 8.75594 21.5447C8.49434 21.4315 8.23669 21.3094 7.98345 21.1785L5.60848 22.1935C5.45199 22.2602 5.27947 22.2801 5.11191 22.2506C4.94436 22.221 4.789 22.1435 4.66474 22.0272L2.90726 20.3785C2.77641 20.2563 2.6873 20.096 2.65253 19.9204C2.61777 19.7447 2.6391 19.5626 2.71351 19.3998L3.73475 17.1748C3.59893 16.9113 3.47301 16.6427 3.35726 16.3698C3.22213 16.0357 3.09708 15.6977 2.98226 15.3561L0.744788 14.6748C0.562916 14.6199 0.404285 14.5064 0.293531 14.352C0.182776 14.1976 0.126097 14.011 0.132295 13.8211L0.219794 11.4199C0.226022 11.2632 0.274964 11.1112 0.361327 10.9803C0.447691 10.8495 0.568188 10.7447 0.709788 10.6774L3.05726 9.54989C3.16601 9.15114 3.26101 8.84115 3.34476 8.6149C3.46268 8.31271 3.59364 8.01577 3.73725 7.72491L2.71976 5.57493C2.64255 5.41166 2.6191 5.22811 2.65279 5.05067C2.68648 4.87323 2.77557 4.71105 2.90726 4.58745L4.66224 2.92997C4.78527 2.81393 4.9392 2.73592 5.10552 2.70532C5.27184 2.67472 5.44346 2.69283 5.59973 2.75747L7.9722 3.73746C8.2347 3.56246 8.47219 3.42121 8.68719 3.30746C8.94344 3.17121 9.28593 3.02872 9.71718 2.87497L10.5422 0.573745C10.6032 0.405333 10.7146 0.259851 10.8614 0.157164C11.0082 0.0544777 11.183 -0.000407808 11.3622 2.2814e-06H13.9796ZM12.6621 8.77365C10.5784 8.77365 8.88969 10.4424 8.88969 12.5024C8.88969 14.5623 10.5784 16.2323 12.6621 16.2323C14.7446 16.2323 16.4333 14.5623 16.4333 12.5024C16.4333 10.4424 14.7459 8.77365 12.6621 8.77365Z" fill="#2E3192"/>
</svg>
